# xmcd
#
# Track frame offsets:
#	150
#	18703
#	35127
#	69294
#	97615
#	116490
#	144662
#	173044
#	191414
#	214149
#
# Disc length: 3062 seconds
#
# Revision: 0
# Processed by: cddbd v1.5.2PL0 Copyright (c) Steve Scherf et al.
# Submitted via: EZCDAudioConverter 2.1.7.1
#
DISCID=860bf40a
DTITLE=The Congos - Heart Of The Congos 2/3
DYEAR=1900
DGENRE=
TTITLE0=Don't Blame It On I
TTITLE1=At The Feast
TTITLE2=Neckodeemus
TTITLE3=Solid Foundation [Disco Cork Mix]
TTITLE4=Foundation Dub
TTITLE5=Congoman [12'' Mix]
TTITLE6=Congoman Chant
TTITLE7=Bring The Mackaback
TTITLE8=Fisherman Dub
TTITLE9=Noah Sugar Pan
EXTD=
EXTT0=
EXTT1=
EXTT2=
EXTT3=
EXTT4=
EXTT5=
EXTT6=
EXTT7=
EXTT8=
EXTT9=
PLAYORDER=
